<svg xmlns="http://www.w3.org/2000/svg" viewBox="0 0 400 320"><rect width="400" height="320" fill="#efe6db"/><ellipse cx="200" cy="282" rx="125" ry="12" fill="#d8c9b9"/><path d="M130 59h95v116h60v82H130z" fill="#bd909b"/><g stroke="#ead2d8" stroke-width="3"><path d="M141 70h73"/><path d="M141 80h73"/><path d="M141 90h73"/><path d="M141 100h73"/><path d="M141 110h73"/><path d="M141 120h73"/><path d="M141 130h73"/><path d="M141 140h73"/><path d="M141 150h73"/><path d="M141 160h73"/><path d="M141 170h73"/><path d="M141 180h73"/><path d="M141 190h73"/><path d="M141 200h73"/><path d="M141 210h73"/><path d="M141 220h73"/><path d="M141 230h73"/></g><path d="M145 258v20M160 258v20M175 258v20M190 258v20M205 258v20M220 258v20M235 258v20M250 258v20M265 258v20" stroke="#bd909b" stroke-width="5"/><path d="M224 190h47M224 204h47M224 218h47M224 232h47" stroke="#ead2d8" stroke-width="3"/></svg>